<svg width="222" height="53" viewBox="0 0 222 53" fill="none" xmlns="http://www.w3.org/2000/svg">
<path d="M14.1849 42.6365C20.7773 42.6365 26.233 39.3176 26.233 32.4525C26.233 25.3145 20.1408 23.8142 15.3215 22.5867C11.9117 21.7683 9.18383 21.0863 9.18383 18.8586C9.18383 16.7672 11.4116 15.8124 13.6394 15.8124C16.2308 15.8124 18.5041 17.0854 18.5041 19.8588H25.2783C25.2783 13.4937 21.141 9.5838 13.8212 9.5838C6.77421 9.5838 2.27323 13.0391 2.27323 19.1313C2.27323 25.9965 8.09268 27.4059 12.9119 28.588C16.3672 29.3609 19.277 30.0428 19.277 32.5434C19.277 34.9075 16.7309 36.2715 14.1395 36.2715C11.3207 36.2715 8.77465 34.7711 8.77465 31.725H1.81858C1.81858 38.5447 6.86514 42.6365 14.1849 42.6365ZM42.9704 42.7274C50.5629 42.7274 56.246 37.1353 56.246 29.7246C56.246 22.3139 50.5629 16.7672 42.9704 16.7672C35.3778 16.7672 29.6947 22.3139 29.6947 29.7246C29.6947 37.1353 35.3778 42.7274 42.9704 42.7274ZM42.9704 36.4533C39.1513 36.4533 36.4235 33.7255 36.4235 29.7246C36.4235 25.7692 39.1513 22.9958 42.9704 22.9958C46.7894 22.9958 49.5173 25.7692 49.5173 29.7246C49.5173 33.7255 46.7894 36.4533 42.9704 36.4533ZM61.0343 42H67.6722V8.62904H61.0343V42ZM85.0456 42.6365C91.638 42.6365 97.0937 39.3176 97.0937 32.4525C97.0937 25.3145 91.0015 23.8142 86.1823 22.5867C82.7724 21.7683 80.0445 21.0863 80.0445 18.8586C80.0445 16.7672 82.2723 15.8124 84.5001 15.8124C87.0915 15.8124 89.3648 17.0854 89.3648 19.8588H96.139C96.139 13.4937 92.0017 9.5838 84.6819 9.5838C77.6349 9.5838 73.1339 13.0391 73.1339 19.1313C73.1339 25.9965 78.9534 27.4059 83.7726 28.588C87.2279 29.3609 90.1377 30.0428 90.1377 32.5434C90.1377 34.9075 87.5917 36.2715 85.0002 36.2715C82.1814 36.2715 79.6354 34.7711 79.6354 31.725H72.6793C72.6793 38.5447 77.7259 42.6365 85.0456 42.6365ZM113.884 36.0896C111.429 36.0896 110.065 34.7257 110.065 32.3615V22.814H116.748V17.4492H109.974V11.0841H108.701L99.0171 21.3591V22.814H103.427V33.2708C103.427 38.6811 106.746 42 112.156 42H116.885V36.0896H113.884ZM132.834 42.7274C140.426 42.7274 146.109 37.1353 146.109 29.7246C146.109 22.3139 140.426 16.7672 132.834 16.7672C125.241 16.7672 119.558 22.3139 119.558 29.7246C119.558 37.1353 125.241 42.7274 132.834 42.7274ZM132.834 36.4533C129.015 36.4533 126.287 33.7255 126.287 29.7246C126.287 25.7692 129.015 22.9958 132.834 22.9958C136.653 22.9958 139.381 25.7692 139.381 29.7246C139.381 33.7255 136.653 36.4533 132.834 36.4533ZM163.446 17.3128C160.263 17.3128 158.081 18.313 156.308 20.4953L155.126 17.4492H150.898V42H157.536V29.2699C157.536 25.2691 158.99 23.5869 162.719 23.5869H165.628V17.3128H163.446ZM192.703 29.6791C192.703 22.5867 187.52 16.7672 179.973 16.7672C172.698 16.7672 167.243 22.3593 167.243 29.7246C167.243 37.0898 172.744 42.7274 179.973 42.7274C185.701 42.7274 190.384 39.3176 192.157 33.9528H185.201C184.201 35.7259 182.291 36.817 179.973 36.817C176.745 36.817 174.562 34.953 173.971 31.5886H192.566C192.657 30.9521 192.703 30.3156 192.703 29.6791ZM179.973 22.4503C182.973 22.4503 185.11 24.087 186.065 27.0876H174.153C174.926 24.1779 177.018 22.4503 179.973 22.4503Z" fill="white"/>
<circle cx="206.879" cy="36.6388" r="5.87903" fill="#FF8144"/>
</svg>
