<svg width="110" height="59" viewBox="0 0 110 59" fill="none" xmlns="http://www.w3.org/2000/svg">
<path d="M9.00879 47.5811C9.00879 48.3428 8.81836 48.9932 8.4375 49.5322C8.0625 50.0654 7.53516 50.4727 6.85547 50.7539C6.17578 51.0352 5.37598 51.1758 4.45605 51.1758C3.96973 51.1758 3.50977 51.1523 3.07617 51.1055C2.64258 51.0586 2.24414 50.9912 1.88086 50.9033C1.51758 50.8154 1.19824 50.707 0.922852 50.5781V49.1455C1.3623 49.3271 1.89844 49.4971 2.53125 49.6553C3.16406 49.8076 3.82617 49.8838 4.51758 49.8838C5.16211 49.8838 5.70703 49.7988 6.15234 49.6289C6.59766 49.4531 6.93457 49.2041 7.16309 48.8818C7.39746 48.5537 7.51465 48.1611 7.51465 47.7041C7.51465 47.2646 7.41797 46.8984 7.22461 46.6055C7.03125 46.3066 6.70898 46.0371 6.25781 45.7969C5.8125 45.5508 5.20312 45.29 4.42969 45.0146C3.88477 44.8213 3.4043 44.6104 2.98828 44.3818C2.57227 44.1475 2.22363 43.8838 1.94238 43.5908C1.66113 43.2979 1.44727 42.958 1.30078 42.5713C1.16016 42.1846 1.08984 41.7422 1.08984 41.2441C1.08984 40.5586 1.2627 39.9727 1.6084 39.4863C1.95996 38.9941 2.44336 38.6191 3.05859 38.3613C3.67969 38.0977 4.3916 37.9658 5.19434 37.9658C5.87988 37.9658 6.5127 38.0303 7.09277 38.1592C7.67871 38.2881 8.21484 38.4609 8.70117 38.6777L8.23535 39.9609C7.77246 39.7676 7.28027 39.6064 6.75879 39.4775C6.24316 39.3486 5.70996 39.2842 5.15918 39.2842C4.6084 39.2842 4.14258 39.3662 3.76172 39.5303C3.38672 39.6885 3.09961 39.9141 2.90039 40.207C2.70117 40.5 2.60156 40.8486 2.60156 41.2529C2.60156 41.7041 2.69531 42.0791 2.88281 42.3779C3.07617 42.6768 3.38086 42.9434 3.79688 43.1777C4.21875 43.4062 4.77539 43.6465 5.4668 43.8984C6.22266 44.1738 6.86426 44.4668 7.3916 44.7773C7.91895 45.082 8.32031 45.457 8.5957 45.9023C8.87109 46.3418 9.00879 46.9014 9.00879 47.5811ZM15.126 41.1914C15.9463 41.1914 16.6494 41.373 17.2354 41.7363C17.8213 42.0996 18.2695 42.6094 18.5801 43.2656C18.8906 43.916 19.0459 44.6777 19.0459 45.5508V46.4561H12.3926C12.4102 47.5869 12.6914 48.4482 13.2363 49.04C13.7812 49.6318 14.5488 49.9277 15.5391 49.9277C16.1484 49.9277 16.6875 49.8721 17.1562 49.7607C17.625 49.6494 18.1113 49.4854 18.6152 49.2686V50.5518C18.1289 50.7686 17.6455 50.9268 17.165 51.0264C16.6904 51.126 16.1279 51.1758 15.4775 51.1758C14.5518 51.1758 13.7432 50.9883 13.0518 50.6133C12.3662 50.2324 11.833 49.6758 11.4521 48.9434C11.0713 48.2109 10.8809 47.3145 10.8809 46.2539C10.8809 45.2168 11.0537 44.3203 11.3994 43.5645C11.751 42.8027 12.2432 42.2168 12.876 41.8066C13.5146 41.3965 14.2646 41.1914 15.126 41.1914ZM15.1084 42.3867C14.3291 42.3867 13.708 42.6416 13.2451 43.1514C12.7822 43.6611 12.5068 44.373 12.4189 45.2871H17.5166C17.5107 44.7129 17.4199 44.209 17.2441 43.7754C17.0742 43.3359 16.8135 42.9961 16.4619 42.7559C16.1104 42.5098 15.6592 42.3867 15.1084 42.3867ZM22.9922 51H21.5244V37.3242H22.9922V51ZM29.7861 41.1914C30.6064 41.1914 31.3096 41.373 31.8955 41.7363C32.4814 42.0996 32.9297 42.6094 33.2402 43.2656C33.5508 43.916 33.7061 44.6777 33.7061 45.5508V46.4561H27.0527C27.0703 47.5869 27.3516 48.4482 27.8965 49.04C28.4414 49.6318 29.209 49.9277 30.1992 49.9277C30.8086 49.9277 31.3477 49.8721 31.8164 49.7607C32.2852 49.6494 32.7715 49.4854 33.2754 49.2686V50.5518C32.7891 50.7686 32.3057 50.9268 31.8252 51.0264C31.3506 51.126 30.7881 51.1758 30.1377 51.1758C29.2119 51.1758 28.4033 50.9883 27.7119 50.6133C27.0264 50.2324 26.4932 49.6758 26.1123 48.9434C25.7314 48.2109 25.541 47.3145 25.541 46.2539C25.541 45.2168 25.7139 44.3203 26.0596 43.5645C26.4111 42.8027 26.9033 42.2168 27.5361 41.8066C28.1748 41.3965 28.9248 41.1914 29.7861 41.1914ZM29.7686 42.3867C28.9893 42.3867 28.3682 42.6416 27.9053 43.1514C27.4424 43.6611 27.167 44.373 27.0791 45.2871H32.1768C32.1709 44.7129 32.0801 44.209 31.9043 43.7754C31.7344 43.3359 31.4736 42.9961 31.1221 42.7559C30.7705 42.5098 30.3193 42.3867 29.7686 42.3867ZM40.043 51.1758C39.1758 51.1758 38.4111 50.9971 37.749 50.6396C37.0869 50.2822 36.5713 49.7373 36.2021 49.0049C35.833 48.2725 35.6484 47.3496 35.6484 46.2363C35.6484 45.0703 35.8418 44.1182 36.2285 43.3799C36.6211 42.6357 37.1602 42.085 37.8457 41.7275C38.5312 41.3701 39.3105 41.1914 40.1836 41.1914C40.6641 41.1914 41.127 41.2412 41.5723 41.3408C42.0234 41.4346 42.3926 41.5547 42.6797 41.7012L42.2402 42.9229C41.9473 42.8057 41.6074 42.7002 41.2207 42.6064C40.8398 42.5127 40.4824 42.4658 40.1484 42.4658C39.4805 42.4658 38.9238 42.6094 38.4785 42.8965C38.0391 43.1836 37.708 43.6055 37.4854 44.1621C37.2686 44.7188 37.1602 45.4043 37.1602 46.2188C37.1602 46.998 37.2656 47.6631 37.4766 48.2139C37.6934 48.7646 38.0127 49.1865 38.4346 49.4795C38.8623 49.7666 39.3955 49.9102 40.0342 49.9102C40.5439 49.9102 41.0039 49.8574 41.4141 49.752C41.8242 49.6406 42.1963 49.5117 42.5303 49.3652V50.666C42.208 50.8301 41.8477 50.9561 41.4492 51.0439C41.0566 51.1318 40.5879 51.1758 40.043 51.1758ZM47.9268 49.9805C48.167 49.9805 48.4131 49.96 48.665 49.9189C48.917 49.8779 49.1221 49.8281 49.2803 49.7695V50.9033C49.1104 50.9795 48.873 51.0439 48.5684 51.0967C48.2695 51.1494 47.9766 51.1758 47.6895 51.1758C47.1797 51.1758 46.7168 51.0879 46.3008 50.9121C45.8848 50.7305 45.5508 50.4258 45.2988 49.998C45.0527 49.5703 44.9297 48.9785 44.9297 48.2227V42.5098H43.5586V41.7979L44.9385 41.2266L45.5186 39.1348H46.3975V41.3672H49.2188V42.5098H46.3975V48.1787C46.3975 48.7822 46.5352 49.2334 46.8105 49.5322C47.0918 49.8311 47.4639 49.9805 47.9268 49.9805ZM57.3662 41.3672V51H55.9072V41.3672H57.3662ZM56.6543 37.7637C56.8945 37.7637 57.0996 37.8428 57.2695 38.001C57.4453 38.1533 57.5332 38.3936 57.5332 38.7217C57.5332 39.0439 57.4453 39.2842 57.2695 39.4424C57.0996 39.6006 56.8945 39.6797 56.6543 39.6797C56.4023 39.6797 56.1914 39.6006 56.0215 39.4424C55.8574 39.2842 55.7754 39.0439 55.7754 38.7217C55.7754 38.3936 55.8574 38.1533 56.0215 38.001C56.1914 37.8428 56.4023 37.7637 56.6543 37.7637ZM70.9189 41.1914C71.9795 41.1914 72.7793 41.4697 73.3184 42.0264C73.8574 42.5771 74.127 43.4648 74.127 44.6895V51H72.6855V44.7598C72.6855 43.9805 72.5156 43.3975 72.1758 43.0107C71.8418 42.6182 71.3438 42.4219 70.6816 42.4219C69.75 42.4219 69.0732 42.6914 68.6514 43.2305C68.2295 43.7695 68.0186 44.5635 68.0186 45.6123V51H66.5684V44.7598C66.5684 44.2383 66.4922 43.8047 66.3398 43.459C66.1934 43.1133 65.9707 42.8555 65.6719 42.6855C65.3789 42.5098 65.0068 42.4219 64.5557 42.4219C63.917 42.4219 63.4043 42.5537 63.0176 42.8174C62.6309 43.0811 62.3496 43.4736 62.1738 43.9951C62.0039 44.5107 61.9189 45.1465 61.9189 45.9023V51H60.46V41.3672H61.6377L61.8574 42.7295H61.9365C62.1299 42.3955 62.373 42.1143 62.666 41.8857C62.959 41.6572 63.2871 41.4844 63.6504 41.3672C64.0137 41.25 64.4004 41.1914 64.8105 41.1914C65.543 41.1914 66.1553 41.3291 66.6475 41.6045C67.1455 41.874 67.5059 42.2871 67.7285 42.8438H67.8076C68.124 42.2871 68.5576 41.874 69.1084 41.6045C69.6592 41.3291 70.2627 41.1914 70.9189 41.1914ZM80.7275 41.209C81.876 41.209 82.7285 41.4668 83.2852 41.9824C83.8418 42.498 84.1201 43.3213 84.1201 44.4521V51H83.0566L82.7754 49.5762H82.7051C82.4355 49.9277 82.1543 50.2236 81.8613 50.4639C81.5684 50.6982 81.2285 50.877 80.8418 51C80.4609 51.1172 79.9922 51.1758 79.4355 51.1758C78.8496 51.1758 78.3281 51.0732 77.8711 50.8682C77.4199 50.6631 77.0625 50.3525 76.7988 49.9365C76.541 49.5205 76.4121 48.9932 76.4121 48.3545C76.4121 47.3936 76.793 46.6553 77.5547 46.1396C78.3164 45.624 79.4766 45.3428 81.0352 45.2959L82.6963 45.2256V44.6367C82.6963 43.8047 82.5176 43.2217 82.1602 42.8877C81.8027 42.5537 81.2988 42.3867 80.6484 42.3867C80.1445 42.3867 79.6641 42.46 79.207 42.6064C78.75 42.7529 78.3164 42.9258 77.9062 43.125L77.458 42.0176C77.8916 41.7949 78.3896 41.6045 78.9521 41.4463C79.5146 41.2881 80.1064 41.209 80.7275 41.209ZM82.6787 46.2539L81.2109 46.3154C80.0098 46.3623 79.1631 46.5586 78.6709 46.9043C78.1787 47.25 77.9326 47.7393 77.9326 48.3721C77.9326 48.9229 78.0996 49.3301 78.4336 49.5938C78.7676 49.8574 79.21 49.9893 79.7607 49.9893C80.6162 49.9893 81.3164 49.752 81.8613 49.2773C82.4062 48.8027 82.6787 48.0908 82.6787 47.1416V46.2539ZM89.8154 55.3242C88.5498 55.3242 87.5742 55.0869 86.8887 54.6123C86.2031 54.1436 85.8604 53.4844 85.8604 52.6348C85.8604 52.0312 86.0508 51.5156 86.4316 51.0879C86.8184 50.6602 87.3516 50.376 88.0312 50.2354C87.7793 50.1182 87.5625 49.9424 87.3809 49.708C87.2051 49.4736 87.1172 49.2041 87.1172 48.8994C87.1172 48.5479 87.2139 48.2402 87.4072 47.9766C87.6064 47.707 87.9082 47.4492 88.3125 47.2031C87.8086 46.998 87.3984 46.6523 87.082 46.166C86.7715 45.6738 86.6162 45.1025 86.6162 44.4521C86.6162 43.7607 86.7598 43.1719 87.0469 42.6855C87.334 42.1934 87.75 41.8184 88.2949 41.5605C88.8398 41.3027 89.499 41.1738 90.2725 41.1738C90.4424 41.1738 90.6123 41.1826 90.7822 41.2002C90.958 41.2119 91.125 41.2324 91.2832 41.2617C91.4414 41.2852 91.5791 41.3145 91.6963 41.3496H95.001V42.29L93.2256 42.5098C93.4014 42.7383 93.5479 43.0137 93.665 43.3359C93.7822 43.6582 93.8408 44.0156 93.8408 44.4082C93.8408 45.3691 93.5156 46.1338 92.8652 46.7021C92.2148 47.2646 91.3213 47.5459 90.1846 47.5459C89.915 47.5459 89.6396 47.5225 89.3584 47.4756C89.0713 47.6338 88.8516 47.8096 88.6992 48.0029C88.5527 48.1963 88.4795 48.4189 88.4795 48.6709C88.4795 48.8584 88.5352 49.0078 88.6465 49.1191C88.7637 49.2305 88.9307 49.3125 89.1475 49.3652C89.3643 49.4121 89.625 49.4355 89.9297 49.4355H91.626C92.6748 49.4355 93.4775 49.6553 94.0342 50.0947C94.5967 50.5342 94.8779 51.1758 94.8779 52.0195C94.8779 53.0859 94.4443 53.9033 93.5771 54.4717C92.71 55.04 91.4561 55.3242 89.8154 55.3242ZM89.8594 54.1816C90.6562 54.1816 91.3154 54.0996 91.8369 53.9355C92.3643 53.7773 92.7568 53.5459 93.0146 53.2412C93.2783 52.9424 93.4102 52.585 93.4102 52.1689C93.4102 51.7822 93.3223 51.4893 93.1465 51.29C92.9707 51.0967 92.7129 50.9678 92.373 50.9033C92.0332 50.833 91.6172 50.7979 91.125 50.7979H89.4551C89.0215 50.7979 88.6436 50.8652 88.3213 51C87.999 51.1348 87.75 51.334 87.5742 51.5977C87.4043 51.8613 87.3193 52.1895 87.3193 52.582C87.3193 53.1035 87.5391 53.499 87.9785 53.7686C88.418 54.0439 89.0449 54.1816 89.8594 54.1816ZM90.2373 46.4824C90.9346 46.4824 91.459 46.3066 91.8105 45.9551C92.1621 45.6035 92.3379 45.0908 92.3379 44.417C92.3379 43.6963 92.1592 43.1572 91.8018 42.7998C91.4443 42.4365 90.917 42.2549 90.2197 42.2549C89.5518 42.2549 89.0361 42.4424 88.6729 42.8174C88.3154 43.1865 88.1367 43.7285 88.1367 44.4434C88.1367 45.0996 88.3184 45.6035 88.6816 45.9551C89.0449 46.3066 89.5635 46.4824 90.2373 46.4824ZM100.608 41.1914C101.429 41.1914 102.132 41.373 102.718 41.7363C103.304 42.0996 103.752 42.6094 104.062 43.2656C104.373 43.916 104.528 44.6777 104.528 45.5508V46.4561H97.875C97.8926 47.5869 98.1738 48.4482 98.7188 49.04C99.2637 49.6318 100.031 49.9277 101.021 49.9277C101.631 49.9277 102.17 49.8721 102.639 49.7607C103.107 49.6494 103.594 49.4854 104.098 49.2686V50.5518C103.611 50.7686 103.128 50.9268 102.647 51.0264C102.173 51.126 101.61 51.1758 100.96 51.1758C100.034 51.1758 99.2256 50.9883 98.5342 50.6133C97.8486 50.2324 97.3154 49.6758 96.9346 48.9434C96.5537 48.2109 96.3633 47.3145 96.3633 46.2539C96.3633 45.2168 96.5361 44.3203 96.8818 43.5645C97.2334 42.8027 97.7256 42.2168 98.3584 41.8066C98.9971 41.3965 99.7471 41.1914 100.608 41.1914ZM100.591 42.3867C99.8115 42.3867 99.1904 42.6416 98.7275 43.1514C98.2646 43.6611 97.9893 44.373 97.9014 45.2871H102.999C102.993 44.7129 102.902 44.209 102.727 43.7754C102.557 43.3359 102.296 42.9961 101.944 42.7559C101.593 42.5098 101.142 42.3867 100.591 42.3867Z" fill="#9FA7B3"/>
<path d="M64.3332 2.66675H45.6665C44.6056 2.66675 43.5882 3.08818 42.8381 3.83832C42.0879 4.58847 41.6665 5.60588 41.6665 6.66675V25.3334C41.6665 26.3943 42.0879 27.4117 42.8381 28.1618C43.5882 28.912 44.6056 29.3334 45.6665 29.3334H64.3332C64.5525 29.3304 64.7711 29.3081 64.9865 29.2667L65.3865 29.1734H65.4798H65.5465L66.0398 28.9867L66.2132 28.8934C66.3465 28.8134 66.4932 28.7467 66.6265 28.6534C66.8045 28.5224 66.9738 28.3799 67.1332 28.2267L67.2265 28.1067C67.3574 27.9741 67.4778 27.8314 67.5865 27.6801L67.7065 27.5067C67.7996 27.3583 67.8799 27.2022 67.9465 27.0401C67.9831 26.9761 68.0143 26.9092 68.0398 26.8401C68.1065 26.6801 68.1465 26.5067 68.1998 26.3334V26.1334C68.2754 25.8729 68.3202 25.6044 68.3332 25.3334V6.66675C68.3332 5.60588 67.9117 4.58847 67.1616 3.83832C66.4115 3.08818 65.394 2.66675 64.3332 2.66675ZM45.6665 26.6667C45.3129 26.6667 44.9737 26.5263 44.7237 26.2762C44.4736 26.0262 44.3332 25.687 44.3332 25.3334V19.5867L48.7198 15.1867C48.8438 15.0618 48.9913 14.9626 49.1537 14.8949C49.3162 14.8272 49.4905 14.7924 49.6665 14.7924C49.8425 14.7924 50.0168 14.8272 50.1793 14.8949C50.3418 14.9626 50.4892 15.0618 50.6132 15.1867L62.0798 26.6667H45.6665ZM65.6665 25.3334C65.6652 25.4978 65.6336 25.6605 65.5732 25.8134C65.5427 25.8784 65.507 25.9408 65.4665 26.0001C65.4308 26.0565 65.3907 26.11 65.3465 26.1601L58.2132 19.0267L59.3865 17.8534C59.5105 17.7284 59.6579 17.6293 59.8204 17.5616C59.9829 17.4939 60.1572 17.459 60.3332 17.459C60.5092 17.459 60.6835 17.4939 60.8459 17.5616C61.0084 17.6293 61.1559 17.7284 61.2798 17.8534V17.8534L65.6665 22.2534V25.3334ZM65.6665 18.4801L63.1598 16.0001C62.3968 15.2761 61.385 14.8725 60.3332 14.8725C59.2813 14.8725 58.2695 15.2761 57.5065 16.0001L56.3332 17.1734L52.4932 13.3334C51.7301 12.6094 50.7184 12.2058 49.6665 12.2058C48.6146 12.2058 47.6029 12.6094 46.8398 13.3334L44.3332 15.8134V6.66675C44.3332 6.31313 44.4736 5.97399 44.7237 5.72394C44.9737 5.47389 45.3129 5.33341 45.6665 5.33341H64.3332C64.6868 5.33341 65.0259 5.47389 65.276 5.72394C65.526 5.97399 65.6665 6.31313 65.6665 6.66675V18.4801Z" fill="#9FA7B3"/>
</svg>
